# xmcd CD database file
#
# Track frame offsets:
#	150
#	20944
#	33402
#	54120
#	83245
#	113968
#	132097
#	171883
#	196550
#	228619
#	253154
#
# Disc length: 3643 seconds
#
# Revision: 0
# Processed by: cddbd v1.5PL3 Copyright (c) Steve Scherf et al.
# Submitted via: CDex 1.50beta10
#
DISCID=8e0e390b
DTITLE=Quintessence Saxophone Quintet - Jazzentials Of Bach
DYEAR=1900
DGENRE=Jazz
TTITLE0=Prelude
TTITLE1=Fudge Fugue In G Minor
TTITLE2=Praluditom
TTITLE3=Toccata and Funk and Choral In D Minor
TTITLE4=Jazzentials
TTITLE5=Bachanalia
TTITLE6=Fragments Of B A C H
TTITLE7=Blue Bach
TTITLE8=Great Bop Fugue In D Major
TTITLE9=Schlafes Schwester
TTITLE10=Cube Chat
EXTD=
EXTT0=
EXTT1=
EXTT2=
EXTT3=
EXTT4=
EXTT5=
EXTT6=
EXTT7=
EXTT8=
EXTT9=
EXTT10=
PLAYORDER=
